<svg version="1.1" id="Layer_1" xmlns="http://www.w3.org/2000/svg" xmlns:xlink="http://www.w3.org/1999/xlink" x="0px" y="0px"
	 width="100%" viewBox="0 0 64 64" enable-background="new 0 0 64 64" xml:space="preserve">
<path fill="#23A8FE" opacity="1.000000" stroke="none" 
	d="
M40.000000,65.000000 
	C38.933212,65.000000 37.866425,65.000000 36.718853,64.739586 
	C35.778000,64.015228 34.917934,63.551289 33.833061,62.818420 
	C31.045052,61.339504 28.481852,60.129517 26.106937,58.608696 
	C26.703316,57.781376 27.358202,57.317493 27.481262,56.740238 
	C28.685627,51.090698 30.416256,45.890030 35.619995,42.367851 
	C36.957024,41.462879 37.219822,38.970818 38.186783,37.137600 
	C38.397438,37.067333 38.839661,37.026142 39.034599,37.300552 
	C39.404377,36.359409 39.579216,35.143856 39.827995,33.556061 
	C40.927803,32.340660 41.953667,31.497494 43.079731,31.003559 
	C45.734917,33.596004 48.289906,35.839218 51.026581,38.421272 
	C51.488529,40.000252 51.687996,41.265476 52.063850,42.475937 
	C53.302170,46.464005 54.084377,50.808800 58.904472,52.432568 
	C53.979809,57.902454 48.531273,61.930244 41.335350,63.100998 
	C40.801380,63.187870 40.441051,64.342018 40.000000,65.000000 
z"/>
<path fill="#23A8FD" opacity="1.000000" stroke="none" 
	d="
M37.000000,1.000000 
	C37.750000,1.000000 38.500000,1.000000 39.300201,1.293065 
	C41.613480,2.715412 43.876556,3.844692 45.971970,5.280837 
	C45.211391,8.290578 44.486961,10.973478 44.072258,13.703426 
	C43.800323,15.493502 43.976215,17.351606 43.792953,19.467190 
	C40.442348,19.126131 37.250332,18.497126 34.040428,17.899343 
	C34.022541,17.930569 34.085667,17.965143 33.933327,17.713509 
	C33.226570,17.360134 32.672157,17.258392 31.796345,17.139908 
	C31.169127,18.084963 30.330328,19.625345 30.644178,19.914457 
	C32.649395,21.761625 34.908131,23.333580 37.079071,25.331203 
	C36.076599,26.790428 35.078506,27.914539 33.847797,28.788969 
	C32.736858,28.413641 31.858532,28.287998 30.629318,28.098646 
	C25.105385,30.242231 29.957481,30.984209 30.901815,32.553539 
	C30.934587,33.149551 30.966993,33.489445 30.766939,33.907574 
	C30.534477,33.985813 30.062517,34.119587 29.661175,34.079750 
	C25.338015,32.017189 21.251141,30.244518 17.589563,27.827545 
	C16.408720,27.048082 16.346684,24.573689 16.190281,24.110619 
	C21.259817,20.957033 25.329147,18.425640 29.116076,16.069921 
	C26.845860,12.875054 25.439442,10.895808 24.015350,8.592543 
	C23.946337,7.839507 23.894995,7.410490 23.968609,6.696274 
	C25.015759,5.601490 25.937950,4.791907 27.018501,4.267992 
	C29.453936,4.315096 31.731012,4.076530 34.389992,3.901494 
	C35.514595,2.976683 36.257298,1.988341 37.000000,1.000000 
z"/>
<path fill="#000000" opacity="1.000000" stroke="none" 
	d="
M36.531342,1.000000 
	C36.257298,1.988341 35.514595,2.976683 34.158936,3.591474 
	C31.317368,3.472724 29.088755,3.727524 26.860142,3.982324 
	C25.937950,4.791907 25.015759,5.601490 23.638607,6.542057 
	C21.650167,6.713142 19.955622,6.340082 18.610872,6.864314 
	C12.538437,9.231568 9.081913,14.094971 6.516949,20.165379 
	C2.720931,28.892191 3.090376,37.435356 6.014698,46.307629 
	C4.557988,48.143391 3.260465,49.652443 1.727725,51.088226 
	C1.492507,51.014950 1.000000,51.000000 1.000000,51.000000 
	C1.000000,34.418575 1.000000,17.837154 1.000000,1.000000 
	C12.686319,1.000000 24.374500,1.000000 36.531342,1.000000 
z"/>
<path fill="#000000" opacity="1.000000" stroke="none" 
	d="
M46.139633,4.973973 
	C43.876556,3.844692 41.613480,2.715412 39.675201,1.293065 
	C48.254917,1.000000 56.509830,1.000000 65.000000,1.000000 
	C65.000000,8.019068 65.000000,15.040751 64.763412,22.856903 
	C64.046494,23.421009 63.566170,23.190647 63.051491,22.620163 
	C62.712471,21.505909 62.407806,20.731777 62.051949,19.598583 
	C59.505558,14.144822 56.629032,9.397465 50.662792,7.085208 
	C48.931911,6.331934 47.535774,5.652954 46.139633,4.973973 
z"/>
<path fill="#000000" opacity="1.000000" stroke="none" 
	d="
M40.468681,65.000000 
	C40.441051,64.342018 40.801380,63.187870 41.335350,63.100998 
	C48.531273,61.930244 53.979809,57.902454 59.193985,52.280060 
	C60.018913,50.846539 60.424911,49.872597 61.018715,48.585018 
	C62.471008,46.847584 63.735504,45.423790 65.000000,44.000000 
	C65.000000,50.932713 65.000000,57.865429 65.000000,65.000000 
	C56.980244,65.000000 48.958801,65.000000 40.468681,65.000000 
z"/>
<path fill="#42CB8E" opacity="1.000000" stroke="none" 
	d="
M65.000000,43.531464 
	C63.735504,45.423790 62.471008,46.847584 60.779068,48.349213 
	C58.588512,42.245987 56.825401,36.064922 55.264305,29.660927 
	C56.350578,28.975025 57.234844,28.512056 58.493847,28.031639 
	C62.039974,27.802898 63.212944,25.924017 63.085842,22.960285 
	C63.566170,23.190647 64.046494,23.421009 64.763412,23.325686 
	C65.000000,29.687645 65.000000,36.375290 65.000000,43.531464 
z"/>
<path fill="#FEE458" opacity="1.000000" stroke="none" 
	d="
M1.962943,51.161499 
	C3.260465,49.652443 4.557988,48.143391 6.335741,46.458755 
	C7.558711,47.905331 8.301452,49.527481 9.294303,51.387741 
	C10.786738,51.480064 12.404935,51.786911 13.211870,51.116825 
	C19.612226,45.801857 25.858280,40.301079 32.400612,34.964115 
	C33.076889,35.389431 33.504280,35.708004 33.950264,36.234924 
	C33.968857,36.443275 34.009254,36.859676 33.707195,37.015747 
	C28.927876,41.828281 24.450615,46.484737 19.615213,51.078987 
	C17.173792,52.625973 15.090510,54.235172 12.664599,56.000832 
	C8.812102,58.394356 5.180768,59.885101 1.000000,58.000000 
	C1.000000,56.933331 1.000000,55.866661 1.244987,54.201248 
	C1.647630,52.788834 1.805287,51.975166 1.962943,51.161499 
M3.204338,54.330387 
	C3.226138,54.829556 3.247938,55.328720 3.269738,55.827888 
	C3.487524,55.797443 3.705310,55.766998 3.923096,55.736557 
	C3.798311,55.184505 3.673527,54.632454 3.204338,54.330387 
z"/>
<path fill="#000000" opacity="1.000000" stroke="none" 
	d="
M1.000000,58.497906 
	C5.180768,59.885101 8.812102,58.394356 12.981850,56.155132 
	C18.143896,58.438698 22.666321,60.686142 27.128571,63.047310 
	C27.885004,63.447567 28.382744,64.336716 29.000000,65.000000 
	C19.666592,65.000000 10.333182,65.000000 1.000000,65.000000 
	C1.000000,62.938328 1.000000,60.967068 1.000000,58.497906 
z"/>
<path fill="#0495FB" opacity="1.000000" stroke="none" 
	d="
M29.416666,65.000000 
	C28.382744,64.336716 27.885004,63.447567 27.128571,63.047310 
	C22.666321,60.686142 18.143896,58.438698 13.324480,55.998672 
	C15.090510,54.235172 17.173792,52.625973 19.676876,51.419701 
	C22.037336,54.188263 23.977995,56.553894 25.918653,58.919525 
	C28.481852,60.129517 31.045052,61.339504 33.675629,63.187103 
	C33.828667,64.216469 33.914333,64.608238 34.000000,65.000000 
	C32.611111,65.000000 31.222221,65.000000 29.416666,65.000000 
z"/>
<path fill="#000000" opacity="1.000000" stroke="none" 
	d="
M34.333332,65.000000 
	C33.914333,64.608238 33.828667,64.216469 33.900436,63.456024 
	C34.917934,63.551289 35.778000,64.015228 36.319035,64.739586 
	C35.555553,65.000000 35.111111,65.000000 34.333332,65.000000 
z"/>
<path fill="#FFDB1E" opacity="1.000000" stroke="none" 
	d="
M1.727725,51.088226 
	C1.805287,51.975166 1.647630,52.788834 1.244987,53.801250 
	C1.000000,53.250000 1.000000,52.500000 1.000000,51.375000 
	C1.000000,51.000000 1.492507,51.014950 1.727725,51.088226 
z"/>
<path fill="#44CA8F" opacity="1.000000" stroke="none" 
	d="
M26.106937,58.608696 
	C23.977995,56.553894 22.037336,54.188263 20.035017,51.481915 
	C24.450615,46.484737 28.927876,41.828281 34.102051,37.075005 
	C35.858021,37.054749 36.917072,37.131310 37.976124,37.207867 
	C37.219822,38.970818 36.957024,41.462879 35.619995,42.367851 
	C30.416256,45.890030 28.685627,51.090698 27.481262,56.740238 
	C27.358202,57.317493 26.703316,57.781376 26.106937,58.608696 
z"/>
<path fill="#02BA68" opacity="1.000000" stroke="none" 
	d="
M55.062290,29.883858 
	C56.825401,36.064922 58.588512,42.245987 60.591267,48.662857 
	C60.424911,49.872597 60.018913,50.846539 59.323410,51.972992 
	C54.084377,50.808800 53.302170,46.464005 52.063850,42.475937 
	C51.687996,41.265476 51.488529,40.000252 51.136147,38.123226 
	C50.767017,35.990749 50.470009,34.495155 50.440887,32.809055 
	C52.159946,31.706984 53.611118,30.795422 55.062290,29.883858 
z"/>
<path fill="#DAE9FA" opacity="1.000000" stroke="none" 
	d="
M38.186783,37.137600 
	C36.917072,37.131310 35.858021,37.054749 34.404114,36.918930 
	C34.009254,36.859676 33.968857,36.443275 34.015873,35.893005 
	C37.355305,31.427481 40.418552,27.283764 44.017300,23.673891 
	C46.598213,21.084991 49.895374,19.210125 52.953300,17.352489 
	C53.076065,18.146294 53.118519,18.604311 53.008137,19.317873 
	C52.235565,20.330906 51.615829,21.088396 50.694717,22.004618 
	C48.942024,24.109945 47.490711,26.056543 45.746208,28.109241 
	C44.628525,29.028339 43.804028,29.841333 42.979534,30.654327 
	C41.953667,31.497494 40.927803,32.340660 39.566673,33.771412 
	C39.100830,35.248047 38.970245,36.137093 38.839661,37.026142 
	C38.839661,37.026142 38.397438,37.067333 38.186783,37.137600 
z"/>
<path fill="#8CCBFE" opacity="1.000000" stroke="none" 
	d="
M43.079731,31.003559 
	C43.804028,29.841333 44.628525,29.028339 46.018936,28.283432 
	C47.780899,29.900867 48.976948,31.450214 50.172997,32.999561 
	C50.470009,34.495155 50.767017,35.990749 50.954460,37.784389 
	C48.289906,35.839218 45.734917,33.596004 43.079731,31.003559 
z"/>
<path fill="#FB606C" opacity="1.000000" stroke="none" 
	d="
M39.034599,37.300552 
	C38.970245,36.137093 39.100830,35.248047 39.492733,34.143646 
	C39.579216,35.143856 39.404377,36.359409 39.034599,37.300552 
z"/>
<path fill="#43CB8F" opacity="1.000000" stroke="none" 
	d="
M24.033024,8.916561 
	C25.439442,10.895808 26.845860,12.875054 29.116076,16.069921 
	C25.329147,18.425640 21.259817,20.957033 16.190281,24.110619 
	C16.346684,24.573689 16.408720,27.048082 17.589563,27.827545 
	C21.251141,30.244518 25.338015,32.017189 29.514378,34.375099 
	C26.530415,37.493473 23.291908,40.276661 19.752493,42.884827 
	C16.839703,40.720684 13.325985,39.572590 13.981553,34.986614 
	C14.205543,33.419712 12.760276,31.614193 11.966375,29.678581 
	C11.562252,29.008383 11.269443,28.577297 11.250449,27.903904 
	C13.978560,20.268618 17.324099,13.470377 24.033024,8.916561 
z"/>
<path fill="#03BB68" opacity="1.000000" stroke="none" 
	d="
M24.015350,8.592543 
	C17.324099,13.470377 13.978560,20.268618 10.956998,27.684822 
	C9.205608,25.131481 8.021485,22.554909 6.837362,19.978336 
	C9.081913,14.094971 12.538437,9.231568 18.610872,6.864314 
	C19.955622,6.340082 21.650167,6.713142 23.513651,6.827257 
	C23.894995,7.410490 23.946337,7.839507 24.015350,8.592543 
z"/>
<path fill="#B2DBFB" opacity="1.000000" stroke="none" 
	d="
M52.872993,17.016705 
	C49.895374,19.210125 46.598213,21.084991 44.017300,23.673891 
	C40.418552,27.283764 37.355305,31.427481 33.997276,35.684654 
	C33.504280,35.708004 33.076889,35.389431 32.277962,34.724960 
	C31.604078,34.195820 31.301741,34.012577 30.999401,33.829334 
	C30.966993,33.489445 30.934587,33.149551 31.157219,32.395645 
	C31.640848,31.665878 31.869440,31.350128 32.365364,30.921431 
	C33.115273,30.218542 33.597843,29.628597 34.080414,29.038652 
	C35.078506,27.914539 36.076599,26.790428 37.372070,25.271076 
	C37.547443,23.863897 37.714672,22.681297 37.240276,21.877277 
	C36.381493,20.421782 35.140015,19.192085 34.058315,17.868118 
	C37.250332,18.497126 40.442348,19.126131 44.100487,19.309727 
	C46.344574,17.522934 48.122543,16.181551 50.265324,14.900305 
	C51.377754,15.645861 52.125374,16.331282 52.872993,17.016705 
z"/>
<path fill="#FED408" opacity="1.000000" stroke="none" 
	d="
M30.766939,33.907574 
	C31.301741,34.012577 31.604078,34.195820 32.029072,34.618217 
	C25.858280,40.301079 19.612226,45.801857 13.211870,51.116825 
	C12.404935,51.786911 10.786738,51.480064 9.638329,51.312401 
	C11.511505,49.696815 13.290767,48.394680 15.377193,46.961769 
	C17.140707,45.573940 18.597054,44.316895 20.053402,43.059849 
	C23.291908,40.276661 26.530415,37.493473 29.915718,34.414932 
	C30.062517,34.119587 30.534477,33.985813 30.766939,33.907574 
z"/>
<path fill="#04BB69" opacity="1.000000" stroke="none" 
	d="
M49.900513,14.840171 
	C48.122543,16.181551 46.344574,17.522934 44.259071,19.021778 
	C43.976215,17.351606 43.800323,15.493502 44.072258,13.703426 
	C44.486961,10.973478 45.211391,8.290578 45.971970,5.280837 
	C47.535774,5.652954 48.931911,6.331934 50.590836,7.422684 
	C50.535915,10.169693 50.218216,12.504932 49.900513,14.840171 
z"/>
<path fill="#8BCAFF" opacity="1.000000" stroke="none" 
	d="
M34.040428,17.899343 
	C35.140015,19.192085 36.381493,20.421782 37.240276,21.877277 
	C37.714672,22.681297 37.547443,23.863897 37.376450,24.935963 
	C34.908131,23.333580 32.649395,21.761625 30.644178,19.914457 
	C30.330328,19.625345 31.169127,18.084963 31.988251,17.338718 
	C33.029594,17.691229 33.557629,17.828186 34.085667,17.965141 
	C34.085667,17.965143 34.022541,17.930569 34.040428,17.899343 
z"/>
<path fill="#08BC6B" opacity="1.000000" stroke="none" 
	d="
M27.018501,4.267993 
	C29.088755,3.727524 31.317368,3.472724 33.777031,3.527943 
	C31.731012,4.076530 29.453936,4.315096 27.018501,4.267993 
z"/>
<path fill="#FF4857" opacity="1.000000" stroke="none" 
	d="
M32.098034,31.034378 
	C31.869440,31.350128 31.640848,31.665878 31.156853,32.139523 
	C29.957481,30.984209 25.105385,30.242231 30.640169,28.423336 
	C31.367285,29.552614 31.732658,30.293497 32.098034,31.034378 
z"/>
<path fill="#FF616C" opacity="1.000000" stroke="none" 
	d="
M32.365364,30.921432 
	C31.732658,30.293497 31.367285,29.552614 30.991058,28.487045 
	C31.858532,28.287998 32.736858,28.413641 33.847797,28.788969 
	C33.597843,29.628597 33.115273,30.218542 32.365364,30.921432 
z"/>
<path fill="#B2DBFB" opacity="1.000000" stroke="none" 
	d="
M33.933327,17.713509 
	C33.557629,17.828186 33.029594,17.691229 32.309650,17.355461 
	C32.672157,17.258392 33.226570,17.360134 33.933327,17.713509 
z"/>
<path fill="#0394FA" opacity="1.000000" stroke="none" 
	d="
M15.070028,47.092545 
	C13.290767,48.394680 11.511505,49.696815 9.388218,51.074291 
	C8.301452,49.527481 7.558711,47.905331 6.494927,46.132050 
	C3.090376,37.435356 2.720931,28.892191 6.516949,20.165379 
	C8.021485,22.554909 9.205608,25.131481 10.683182,27.927134 
	C11.269443,28.577297 11.562252,29.008383 11.942907,30.137342 
	C13.043846,36.254326 14.056937,41.673435 15.070028,47.092545 
z"/>
<path fill="#43CB8E" opacity="1.000000" stroke="none" 
	d="
M50.265324,14.900306 
	C50.218216,12.504932 50.535915,10.169693 50.925575,7.496978 
	C56.629032,9.397465 59.505558,14.144822 61.628456,19.608364 
	C58.557762,19.672245 55.859364,19.367287 53.160973,19.062330 
	C53.118519,18.604311 53.076065,18.146294 52.953300,17.352489 
	C52.125374,16.331282 51.377754,15.645861 50.265324,14.900306 
z"/>
<path fill="#03BB68" opacity="1.000000" stroke="none" 
	d="
M53.008133,19.317873 
	C55.859364,19.367287 58.557762,19.672245 61.679649,19.967424 
	C62.407806,20.731777 62.712471,21.505909 63.051491,22.620163 
	C63.212944,25.924017 62.039974,27.802898 58.435135,27.618860 
	C58.138687,24.203135 58.037693,21.427868 53.701740,22.098097 
	C52.833599,22.232288 51.899685,21.940996 50.996098,21.845888 
	C51.615829,21.088396 52.235565,20.330906 53.008133,19.317873 
z"/>
<path fill="#24A9FD" opacity="1.000000" stroke="none" 
	d="
M50.694717,22.004620 
	C51.899685,21.940996 52.833599,22.232288 53.701740,22.098097 
	C58.037693,21.427868 58.138687,24.203135 58.060394,27.636311 
	C57.234844,28.512056 56.350578,28.975025 55.264305,29.660927 
	C53.611118,30.795422 52.159946,31.706984 50.440887,32.809055 
	C48.976948,31.450214 47.780899,29.900867 46.312126,28.177330 
	C47.490711,26.056543 48.942024,24.109945 50.694717,22.004620 
z"/>
<path fill="#FEDC2D" opacity="1.000000" stroke="none" 
	d="
M3.376540,54.205395 
	C3.673527,54.632454 3.798311,55.184505 3.923096,55.736557 
	C3.705310,55.766998 3.487524,55.797443 3.269738,55.827888 
	C3.247938,55.328720 3.226138,54.829556 3.376540,54.205395 
z"/>
<path fill="#22A8FD" opacity="1.000000" stroke="none" 
	d="
M15.377194,46.961769 
	C14.056937,41.673435 13.043846,36.254326 12.054221,30.376457 
	C12.760276,31.614193 14.205543,33.419712 13.981553,34.986614 
	C13.325985,39.572590 16.839703,40.720684 19.752491,42.884827 
	C18.597054,44.316895 17.140707,45.573940 15.377194,46.961769 
z"/>
</svg>